<?xml version="1.0" encoding="UTF-8"?>
<svg version="1.1" xmlns="http://www.w3.org/2000/svg" width="590" height="242">
<path d="M0 0 C4.29088071 2.19534454 8.35934336 4.71166919 12.42089844 7.30224609 C16.55426966 9.91487577 20.77035018 12.38210158 24.98266602 14.86474609 C27.28104117 16.22015203 29.57622604 17.57958481 31.86694336 18.94775391 C40.64783334 24.18798119 49.53584244 29.21964496 58.47436523 34.18603516 C67.14545112 39.00897293 75.71296788 43.98961802 84.23046875 49.078125 C85.184375 49.62082031 86.13828125 50.16351563 87.12109375 50.72265625 C89.23046875 52.078125 89.23046875 52.078125 90.23046875 54.078125 C90.35370966 55.52675367 90.41783925 56.98062919 90.45166016 58.43409729 C90.47471222 59.34939713 90.49776428 60.26469696 90.52151489 61.20773315 C90.54148529 62.21498444 90.56145569 63.22223572 90.58203125 64.26000977 C90.60627167 65.31873795 90.63051208 66.37746613 90.65548706 67.46827698 C90.86693035 77.24538636 90.99165648 87.02389353 91.08978271 96.80273533 C91.15685203 103.37409718 91.25259887 109.94225473 91.41699219 116.51196289 C91.57520057 122.86236554 91.65956504 129.2098399 91.69256592 135.56208611 C91.71771457 137.98051895 91.76894471 140.3988293 91.84698486 142.8161335 C92.41531823 161.25285484 92.41531823 161.25285484 88.78557777 165.94654083 C85.28872299 168.97661665 81.43186132 170.76572657 77.11560059 172.34210491 C74.21650661 173.47401058 71.6399608 175.08992667 68.9921875 176.7109375 C66.96820489 177.87631568 64.94344794 179.04034991 62.91796875 180.203125 C60.65363725 181.5064955 58.38931458 182.80988136 56.125 184.11328125 C54.98369629 184.7695752 53.84239258 185.42586914 52.66650391 186.10205078 C38.3562156 194.3319409 24.05705542 202.58087241 9.79296875 210.890625 C8.77380371 211.48367432 7.75463867 212.07672363 6.70458984 212.68774414 C5.76566895 213.23551514 4.82674805 213.78328613 3.859375 214.34765625 C3.0351001 214.82823486 2.2108252 215.30881348 1.36157227 215.80395508 C-0.3798241 216.84512218 -2.08137313 217.95268625 -3.76953125 219.078125 C-17.53814064 222.38287862 -28.58794066 218.06681431 -40.25854492 211.04077148 C-42.39012237 209.72176721 -44.51458409 208.39119542 -46.63183594 207.04931641 C-50.61383674 204.54770775 -54.6723202 202.19552715 -58.74609375 199.84741211 C-61.72335761 198.13121392 -64.68888709 196.39616561 -67.65234375 194.65625 C-73.00306577 191.52099365 -78.3686654 188.41229655 -83.74267578 185.31713867 C-85.94977477 184.04383716 -88.15394123 182.76543746 -90.35498047 181.48168945 C-95.38147318 178.55727492 -100.41459768 175.71275387 -105.59765625 173.07421875 C-106.93123169 172.37268677 -106.93123169 172.37268677 -108.29174805 171.65698242 C-109.9269432 170.80158913 -111.57896182 169.97725397 -113.24926758 169.19262695 C-115.51874494 167.98381453 -117.0303581 166.97320766 -118.76953125 165.078125 C-119.30877304 162.74843597 -119.30877304 162.74843597 -119.46820068 160.0423584 C-119.52943367 159.05956406 -119.59066666 158.07676971 -119.65375519 157.06419373 C-119.82660337 152.6061344 -119.92506551 148.15870275 -119.93066406 143.69726562 C-119.93562897 142.72512115 -119.94059387 141.75297668 -119.94570923 140.75137329 C-119.96015674 137.57903305 -119.96709806 134.40674253 -119.97265625 131.234375 C-119.97548363 130.14495102 -119.978311 129.05552704 -119.98122406 127.93309021 C-119.99613407 122.18488325 -120.00541925 116.43670092 -120.00976562 110.68847656 C-120.01528483 104.74879494 -120.03940795 98.80933857 -120.06773758 92.86972809 C-120.0863143 88.29735636 -120.09156657 83.72503995 -120.0931015 79.15263367 C-120.09613222 76.96130624 -120.1041748 74.76997987 -120.11728668 72.57868958 C-120.13426711 69.52688969 -120.13248831 66.47565555 -120.12597656 63.42382812 C-120.13519135 62.51682159 -120.14440613 61.60981506 -120.15390015 60.67532349 C-120.14833099 59.84568085 -120.14276184 59.01603821 -120.13702393 58.16125488 C-120.13849049 57.44087288 -120.13995705 56.72049088 -120.14146805 55.97827911 C-119.65756481 53.50610983 -118.68864141 52.66064524 -116.76953125 51.078125 C-115.10906778 50.01680145 -113.4154918 49.00661996 -111.703125 48.03125 C-110.15890869 47.14651001 -110.15890869 47.14651001 -108.58349609 46.24389648 C-107.4692627 45.61169189 -106.3550293 44.9794873 -105.20703125 44.328125 C-104.03697805 43.65944988 -102.86722375 42.99025149 -101.69775391 42.32055664 C-99.26598758 40.92859246 -96.83294881 39.53889298 -94.39892578 38.15087891 C-88.8033043 34.95793083 -83.2242291 31.73629208 -77.64453125 28.515625 C-76.575979 27.89961426 -75.50742676 27.28360352 -74.40649414 26.64892578 C-68.0011119 22.95371774 -61.60726097 19.23952837 -55.22607422 15.50268555 C-53.19198133 14.31481526 -51.15459698 13.13256114 -49.11376953 11.95629883 C-44.80644898 9.47103014 -40.54988314 6.9719536 -36.41796875 4.203125 C-25.15644182 -3.17435254 -12.72240326 -5.70577326 0 0 Z " fill="#262626" transform="translate(309.76953125,11.921875)"/>
<path d="M0 0 C4.95 0 9.9 0 15 0 C15.33 12.21 15.66 24.42 16 37 C20.42788093 27.81671225 20.42788093 27.81671225 24.85449219 18.6328125 C25.41297852 17.47523437 25.97146484 16.31765625 26.546875 15.125 C27.11245117 13.95195313 27.67802734 12.77890625 28.26074219 11.5703125 C30.14616992 7.69994542 32.07466475 3.85067049 34 0 C53.8 0 73.6 0 94 0 C94 17.23186609 94 17.23186609 91.98828125 23.70703125 C91.77817917 24.44217453 91.56807709 25.17731781 91.35160828 25.93473816 C90.69035426 28.23319587 90.00254057 30.52254235 89.3125 32.8125 C88.87119026 34.32563162 88.43173155 35.83930435 87.99414062 37.35351562 C87.11830109 40.3765478 86.23328062 43.3966577 85.34155273 46.41503906 C83.95416805 51.13107025 82.62083058 55.86130074 81.3046875 60.59765625 C81.00532036 61.67150322 81.00532036 61.67150322 80.6999054 62.76704407 C78.65796987 70.14302183 76.82239942 77.56715693 75 85 C74.34 87.64 73.68 90.28 73 93 C59.8 93 46.6 93 33 93 C27.125 77.1875 27.125 77.1875 25.28173828 72.20776367 C24.79490227 70.90271787 24.3077797 69.59777892 23.8203125 68.29296875 C23.57144287 67.61737915 23.32257324 66.94178955 23.06616211 66.24572754 C21.93141173 63.21841187 20.80371334 60.70557 19 58 C16.08328744 62.09154673 15.59434914 65.0655904 15.48828125 70.05078125 C15.47033005 70.70958786 15.45237885 71.36839447 15.43388367 72.04716492 C15.38003344 74.13554631 15.34596892 76.2237026 15.3125 78.3125 C15.2793043 79.7350572 15.24481256 81.15758479 15.20898438 82.58007812 C15.12189784 86.05341317 15.06162282 89.52574799 15 93 C10.05 93 5.1 93 0 93 C0 62.31 0 31.62 0 0 Z " fill="#262828" transform="translate(275,73)"/>
<path d="M0 0 C4.95 0 9.9 0 15 0 C15.33 12.21 15.66 24.42 16 37 C20.42788093 27.81671225 20.42788093 27.81671225 24.85449219 18.6328125 C27.86133596 12.4005085 30.88011355 6.1767449 34 0 C38.95 0 43.9 0 49 0 C47.71141262 2.75147642 46.41907076 5.50110269 45.125 8.25 C44.53066162 9.52000854 44.53066162 9.52000854 43.92431641 10.81567383 C41.75851942 15.41028759 39.52558899 19.94840127 37.140625 24.43359375 C36.67897949 25.31305664 36.21733398 26.19251953 35.74169922 27.09863281 C34.84854641 28.79048569 33.93930474 30.4739682 33.01220703 32.14746094 C32.60341309 32.92766602 32.19461914 33.70787109 31.7734375 34.51171875 C31.40653809 35.18678467 31.03963867 35.86185059 30.66162109 36.55737305 C28.74929762 43.61744549 32.10302006 50.42849358 34.81640625 56.828125 C35.38028297 58.19526642 35.38028297 58.19526642 35.95555115 59.59002686 C37.14865289 62.48060916 38.35435242 65.3656772 39.5625 68.25 C40.77321552 71.14898437 41.98094877 74.04905664 43.18016052 76.95281982 C43.92439446 78.75425273 44.67534416 80.55292918 45.43373108 82.34844971 C45.77085617 83.16319763 46.10798126 83.97794556 46.45532227 84.81738281 C46.75430923 85.53049622 47.0532962 86.24360962 47.36134338 86.97833252 C48 89 48 89 48 93 C43.05 93 38.1 93 33 93 C31.73542969 89.58720703 31.73542969 89.58720703 30.4453125 86.10546875 C29.6254393 83.90093892 28.80423972 81.69690751 27.98291016 79.49291992 C27.41316098 77.96186087 26.8447904 76.43028806 26.27783203 74.89819336 C25.46228831 72.69508269 24.64179175 70.493872 23.8203125 68.29296875 C23.56814972 67.60849167 23.31598694 66.92401459 23.05618286 66.21879578 C21.92463798 63.20051218 20.79836625 60.69754937 19 58 C16.08328744 62.09154673 15.59434914 65.0655904 15.48828125 70.05078125 C15.47033005 70.70958786 15.45237885 71.36839447 15.43388367 72.04716492 C15.38003344 74.13554631 15.34596892 76.2237026 15.3125 78.3125 C15.2793043 79.7350572 15.24481256 81.15758479 15.20898438 82.58007812 C15.12189784 86.05341317 15.06162282 89.52574799 15 93 C10.05 93 5.1 93 0 93 C0 62.31 0 31.62 0 0 Z " fill="#52C1B4" transform="translate(275,73)"/>
<path d="M0 0 C4.95 0 9.9 0 15 0 C18.33333333 23.33333333 21.66666667 46.66666667 25 70 C26.41876793 63.97967487 27.53550603 57.97829056 28.40234375 51.85546875 C28.5255751 51.00559891 28.64880646 50.15572906 28.77577209 49.28010559 C29.16620737 46.58301961 29.55203073 43.88529973 29.9375 41.1875 C30.31878013 38.54043776 30.70103613 35.89351778 31.08340454 33.24661255 C31.33687802 31.49152317 31.58995274 29.73637616 31.84262085 27.98117065 C33.18846695 18.64811698 34.59100487 9.32369766 36 0 C40.62 0 45.24 0 50 0 C49.34370585 6.11461981 48.59084693 12.20395336 47.73046875 18.29296875 C47.60950836 19.15331223 47.48854797 20.0136557 47.36392212 20.90007019 C46.97407105 23.662877 46.58125623 26.42524718 46.1875 29.1875 C46.05338715 30.13063049 45.91927429 31.07376099 45.78109741 32.04547119 C44.05235332 44.16433985 42.18186037 56.22536835 39.87890625 68.25 C38.31952186 76.45619558 37.19780018 84.73517875 36 93 C28.74 93 21.48 93 14 93 C11.61471827 80.61683526 9.52806544 68.20609508 7.5625 55.75 C7.41070282 54.79165253 7.25890564 53.83330505 7.10250854 52.84591675 C5.18977992 40.76114964 3.31175811 28.67211818 1.5625 16.5625 C1.39886963 15.44004883 1.23523926 14.31759766 1.06665039 13.16113281 C0.92219482 12.13987305 0.77773926 11.11861328 0.62890625 10.06640625 C0.50588135 9.19959229 0.38285645 8.33277832 0.25610352 7.43969727 C0 5 0 5 0 0 Z " fill="#5DA4AC" transform="translate(221,73)"/>
<path d="M0 0 C2.6505538 1.27748003 5.14732044 2.59469866 7.6875 4.0625 C8.45441162 4.4965918 9.22132324 4.93068359 10.01147461 5.37792969 C17.66613644 9.74089978 25.2257818 14.26831692 32.79226685 18.78182983 C42.18838226 24.38560178 51.6795717 29.79375795 61.2434082 35.10766602 C69.91468653 39.93063228 78.48234347 44.91140003 87 50 C87.95390625 50.54269531 88.9078125 51.08539063 89.890625 51.64453125 C92 53 92 53 93 55 C93.12324091 56.44862867 93.1873705 57.90250419 93.22119141 59.35597229 C93.24424347 60.27127213 93.26729553 61.18657196 93.29104614 62.12960815 C93.31101654 63.13685944 93.33098694 64.14411072 93.3515625 65.18188477 C93.37580292 66.24061295 93.40004333 67.29934113 93.42501831 68.39015198 C93.6364616 78.16726136 93.76118773 87.94576853 93.85931396 97.72461033 C93.92638328 104.29597218 94.02213012 110.86412973 94.18652344 117.43383789 C94.34473182 123.78424054 94.42909629 130.1317149 94.46209717 136.48396111 C94.48724582 138.90239395 94.53847596 141.3207043 94.61651611 143.7380085 C95.18484948 162.17472984 95.18484948 162.17472984 91.55510902 166.86841583 C88.05825424 169.89849165 84.20139257 171.68760157 79.88513184 173.26397991 C76.98603786 174.39588558 74.40949205 176.01180167 71.76171875 177.6328125 C69.73773614 178.79819068 67.71297919 179.96222491 65.6875 181.125 C63.4231685 182.4283705 61.15884583 183.73175636 58.89453125 185.03515625 C57.75322754 185.6914502 56.61192383 186.34774414 55.43603516 187.02392578 C41.12574685 195.2538159 26.82658667 203.50274741 12.5625 211.8125 C11.54333496 212.40554932 10.52416992 212.99859863 9.47412109 213.60961914 C8.5352002 214.15739014 7.5962793 214.70516113 6.62890625 215.26953125 C5.80463135 215.75010986 4.98035645 216.23068848 4.13110352 216.72583008 C2.38970715 217.76699718 0.68815812 218.87456125 -1 220 C-3.26171875 219.9765625 -3.26171875 219.9765625 -5.6875 219.625 C-6.49574219 219.51414063 -7.30398438 219.40328125 -8.13671875 219.2890625 C-8.75160156 219.19367188 -9.36648438 219.09828125 -10 219 C-6.59166354 216.1544796 -3.16533016 213.81788398 0.69921875 211.63671875 C2.36936035 210.68901611 2.36936035 210.68901611 4.07324219 209.72216797 C4.6614978 209.3910199 5.24975342 209.05987183 5.85583496 208.71868896 C8.36516574 207.30598842 10.86890297 205.88349907 13.37313843 204.46179199 C14.66893019 203.72633654 15.96501438 202.99139607 17.26138306 202.25695801 C23.60869694 198.66042232 29.93233777 195.02335617 36.25 191.375 C37.30590332 190.76567627 38.36180664 190.15635254 39.44970703 189.52856445 C47.98295197 184.59910221 56.49708639 179.637069 64.99902344 174.65380859 C65.91844727 174.11578613 66.83787109 173.57776367 67.78515625 173.0234375 C68.57801025 172.55856934 69.37086426 172.09370117 70.18774414 171.61474609 C74.10125897 169.36767716 78.05514631 167.19158538 82 165 C82 128.37 82 91.74 82 54 C75.4 50.37 68.8 46.74 62 43 C58.66483163 41.04457983 55.35311361 39.0865676 52.0625 37.0625 C42.69971242 31.37984559 33.21493678 25.9307219 23.68945312 20.52636719 C19.06011385 17.89904065 14.43603013 15.26253162 9.8125 12.625 C8.975979 12.14933594 8.13945801 11.67367188 7.27758789 11.18359375 C1.46818984 7.87089717 -4.27822466 4.46172336 -10 1 C-6.15497258 -1.12059711 -4.31166786 -1.17306562 0 0 Z " fill="#AF8B95" transform="translate(307,11)"/>
<path d="M0 0 C-4.65441745 4.09588736 -9.9178265 6.89025138 -15.3125 9.875 C-23.52464075 14.46649624 -31.69463085 19.11873622 -39.8125 23.875 C-48.40094652 28.90252111 -57.00410173 33.90330119 -65.625 38.875 C-66.65471924 39.46909668 -67.68443848 40.06319336 -68.74536133 40.67529297 C-76.4856907 45.13683198 -84.24290167 49.56737238 -92 54 C-92 90.63 -92 127.26 -92 165 C-86.72 167.97 -81.44 170.94 -76 174 C-72.78680682 175.84674556 -69.57706303 177.69687526 -66.375 179.5625 C-60.95204498 182.71408316 -55.52011896 185.84634566 -50.0625 188.9375 C-44.25649559 192.2425612 -38.53229078 195.67319301 -32.8125 199.125 C-26.78916225 202.75929911 -20.75367589 206.31332445 -14.54296875 209.62109375 C-9.62405308 212.28833988 -4.81902504 215.15736394 0 218 C-3 220 -3 220 -5.5390625 219.98046875 C-10.61098329 218.54361534 -14.84116272 215.9624385 -19.375 213.3125 C-20.38522217 212.73161621 -21.39544434 212.15073242 -22.4362793 211.55224609 C-25.63022235 209.71170219 -28.81590063 207.85751341 -32 206 C-33.97785722 204.85024774 -35.95572163 203.70050788 -37.93359375 202.55078125 C-41.89635421 200.24359309 -45.85527792 197.92995367 -49.8125 195.61328125 C-55.18966798 192.46829122 -60.57966941 189.34613398 -65.97753906 186.23681641 C-68.1829681 184.96425479 -70.38550246 183.68666195 -72.58496094 182.40380859 C-77.61163671 179.47935007 -82.64490509 176.634711 -87.828125 173.99609375 C-89.16170044 173.29456177 -89.16170044 173.29456177 -90.5222168 172.57885742 C-92.15741195 171.72346413 -93.80943057 170.89912897 -95.47973633 170.11450195 C-97.74921369 168.90568953 -99.26082685 167.89508266 -101 166 C-101.53924179 163.67031097 -101.53924179 163.67031097 -101.69866943 160.9642334 C-101.75990242 159.98143906 -101.82113541 158.99864471 -101.88422394 157.98606873 C-102.05707212 153.5280094 -102.15553426 149.08057775 -102.16113281 144.61914062 C-102.16609772 143.64699615 -102.17106262 142.67485168 -102.17617798 141.67324829 C-102.19062549 138.50090805 -102.19756681 135.32861753 -102.203125 132.15625 C-102.20595238 131.06682602 -102.20877975 129.97740204 -102.21169281 128.85496521 C-102.22660282 123.10675825 -102.235888 117.35857592 -102.24023438 111.61035156 C-102.24575358 105.67066994 -102.2698767 99.73121357 -102.29820633 93.79160309 C-102.31678305 89.21923136 -102.32203532 84.64691495 -102.32357025 80.07450867 C-102.32660097 77.88318124 -102.33464355 75.69185487 -102.34775543 73.50056458 C-102.36473586 70.44876469 -102.36295706 67.39753055 -102.35644531 64.34570312 C-102.3656601 63.43869659 -102.37487488 62.53169006 -102.3843689 61.59719849 C-102.37879974 60.76755585 -102.37323059 59.93791321 -102.36749268 59.08312988 C-102.36895924 58.36274788 -102.3704258 57.64236588 -102.3719368 56.90015411 C-101.88803356 54.42798483 -100.91911016 53.58252024 -99 52 C-97.33953653 50.93867645 -95.64596055 49.92849496 -93.93359375 48.953125 C-92.38937744 48.06838501 -92.38937744 48.06838501 -90.81396484 47.16577148 C-89.69973145 46.53356689 -88.58549805 45.9013623 -87.4375 45.25 C-86.2674468 44.58132488 -85.0976925 43.91212649 -83.92822266 43.24243164 C-81.49645633 41.85046746 -79.06341756 40.46076798 -76.62939453 39.07275391 C-71.03377305 35.87980583 -65.45469785 32.65816708 -59.875 29.4375 C-58.80644775 28.82148926 -57.73789551 28.20547852 -56.63696289 27.57080078 C-50.23075418 23.87511596 -43.83680529 20.15919478 -37.45336914 16.42431641 C-34.46019743 14.67479816 -31.46282914 12.93265912 -28.46484375 11.19140625 C-25.02027948 9.18903187 -21.5972324 7.15733519 -18.19140625 5.08984375 C-16.77356324 4.24718423 -15.35560376 3.40472063 -13.9375 2.5625 C-13.32503418 2.17852051 -12.71256836 1.79454102 -12.08154297 1.39892578 C-7.71633984 -1.15753885 -4.86771672 -1.14716891 0 0 Z " fill="#A58B95" transform="translate(292,11)"/>
<path d="M0 0 C14.52 0 29.04 0 44 0 C44 17.23186609 44 17.23186609 41.98828125 23.70703125 C41.77817917 24.44217453 41.56807709 25.17731781 41.35160828 25.93473816 C40.69035426 28.23319587 40.00254057 30.52254235 39.3125 32.8125 C38.87119026 34.32563162 38.43173155 35.83930435 37.99414062 37.35351562 C37.11830109 40.3765478 36.23328062 43.3966577 35.34155273 46.41503906 C33.95416805 51.13107025 32.62083058 55.86130074 31.3046875 60.59765625 C31.10510941 61.31355423 30.90553131 62.02945221 30.6999054 62.76704407 C28.65796987 70.14302183 26.82239942 77.56715693 25 85 C24.33579721 87.66728938 23.66805367 90.33367126 23 93 C18.05 93 13.1 93 8 93 C10.97233651 78.88140158 14.59681112 64.98409207 18.36573792 51.05941772 C19.68006859 46.19996214 20.97501089 41.33558692 22.26171875 36.46875 C22.62985524 35.07844322 22.99801892 33.68814364 23.36621094 32.29785156 C23.89929368 30.28471996 24.4318455 28.27145713 24.96252441 26.25769043 C25.45087631 24.4056389 25.94216354 22.5543621 26.43359375 20.703125 C26.71259521 19.64770508 26.99159668 18.59228516 27.27905273 17.50488281 C28 15 28 15 29 13 C19.43 13 9.86 13 0 13 C0 8.71 0 4.42 0 0 Z " fill="#4E8F9C" transform="translate(325,73)"/>
<path d="M0 0 C2.6505538 1.27748003 5.14732044 2.59469866 7.6875 4.0625 C8.45441162 4.4965918 9.22132324 4.93068359 10.01147461 5.37792969 C17.66613644 9.74089978 25.2257818 14.26831692 32.79226685 18.78182983 C42.18838226 24.38560178 51.6795717 29.79375795 61.2434082 35.10766602 C69.91468653 39.93063228 78.48234347 44.91140003 87 50 C87.95390625 50.54269531 88.9078125 51.08539063 89.890625 51.64453125 C92 53 92 53 93 55 C93.09208771 56.46984187 93.12193188 57.94381162 93.12025452 59.41653442 C93.12231651 60.80899384 93.12231651 60.80899384 93.12442017 62.22958374 C93.11902725 63.76166977 93.11902725 63.76166977 93.11352539 65.32470703 C93.11367142 66.39789185 93.11381744 67.47107666 93.1139679 68.57678223 C93.11326917 72.13714595 93.10547861 75.69745787 93.09765625 79.2578125 C93.09579193 81.72118094 93.09436809 84.18454976 93.09336853 86.6479187 C93.08954446 93.14167295 93.07971511 99.63540495 93.06866455 106.12915039 C93.05844806 112.75146178 93.0538704 119.37377676 93.04882812 125.99609375 C93.03809276 138.99740534 93.021209 151.99870149 93 165 C92.67 165 92.34 165 92 165 C91.9845388 163.88057762 91.9845388 163.88057762 91.96876526 162.73854065 C91.86930086 155.57951502 91.76662621 148.42054501 91.66066074 141.26161289 C91.6063351 137.58434196 91.55309841 133.90706314 91.50268555 130.22973633 C91.1945132 107.83617135 90.74219695 85.45734708 89.18359375 63.109375 C89.02336316 60.39568248 88.96424681 57.71724243 89 55 C88.34 54.67 87.68 54.34 87 54 C87 53.34 87 52.68 87 52 C86.36191406 52.42539062 85.72382813 52.85078125 85.06640625 53.2890625 C80.16727225 54.42491268 77.10916536 51.8491708 72.9375 49.375 C72.05698975 48.87154053 71.17647949 48.36808105 70.26928711 47.84936523 C67.49895529 46.25544533 64.74724546 44.63335161 62 43 C61.15856445 42.50032715 60.31712891 42.0006543 59.45019531 41.48583984 C56.15071732 39.5195698 52.85725582 37.54377832 49.57177734 35.55419922 C41.03426996 30.38584244 32.36918778 25.45087985 23.68945312 20.52636719 C19.06011385 17.89904065 14.43603013 15.26253162 9.8125 12.625 C8.975979 12.14933594 8.13945801 11.67367188 7.27758789 11.18359375 C1.46818984 7.87089717 -4.27822466 4.46172336 -10 1 C-6.15497258 -1.12059711 -4.31166786 -1.17306562 0 0 Z " fill="#73718D" transform="translate(307,11)"/>
<path d="M0 0 C0.66 0 1.32 0 2 0 C2 16.17 2 32.34 2 49 C-2.125 51.35125 -6.25 53.7025 -10.5 56.125 C-20.83284575 62.02240357 -31.13258763 67.97254389 -41.39941406 73.984375 C-48.67408642 78.23987616 -55.97939733 82.43845224 -63.32299805 86.57397461 C-67.76957225 89.09269324 -72.13346591 91.69300522 -76.4375 94.44921875 C-77.77409668 95.29299072 -77.77409668 95.29299072 -79.13769531 96.15380859 C-80.82706213 97.22647758 -82.50457913 98.31814424 -84.16699219 99.43212891 C-89.21563344 102.61811301 -92.43529125 103.50071156 -98.35644531 102.40112305 C-98.89881836 102.26875244 -99.44119141 102.13638184 -100 102 C-96.59166354 99.1544796 -93.16533016 96.81788398 -89.30078125 94.63671875 C-87.63063965 93.68901611 -87.63063965 93.68901611 -85.92675781 92.72216797 C-85.04437439 92.22544586 -85.04437439 92.22544586 -84.14416504 91.71868896 C-81.63483426 90.30598842 -79.13109703 88.88349907 -76.62686157 87.46179199 C-75.33106981 86.72633654 -74.03498562 85.99139607 -72.73861694 85.25695801 C-66.39130306 81.66042232 -60.06766223 78.02335617 -53.75 74.375 C-52.69409668 73.76567627 -51.63819336 73.15635254 -50.55029297 72.52856445 C-42.01704803 67.59910221 -33.50291361 62.637069 -25.00097656 57.65380859 C-24.08155273 57.11578613 -23.16212891 56.57776367 -22.21484375 56.0234375 C-21.34190674 55.48904053 -20.46896973 54.95464355 -19.56958008 54.40405273 C-17 53 -17 53 -14.3581543 52.20727539 C-11.33690613 51.18668411 -9.9813582 50.53343677 -8 48 C-6.31736455 41.43938919 -6.83439517 34.40083426 -6.9375 27.6875 C-6.93442462 25.78319214 -6.92730872 23.87888623 -6.91601562 21.97460938 C-6.8971918 17.31513104 -6.9338271 12.65901517 -7 8 C-6.67 8 -6.34 8 -6 8 C-5.2749303 21.74508544 -4.67082488 35.27882304 -6 49 C-4.68 49 -3.36 49 -2 49 C-2 48.34 -2 47.68 -2 47 C-1.34 47 -0.68 47 0 47 C-0.01474869 46.4406778 -0.02949738 45.88135559 -0.04469299 45.30508423 C-0.19679369 39.49813229 -0.34162308 33.69103171 -0.48217773 27.88378906 C-0.53563881 25.71479666 -0.59097127 23.54584956 -0.64819336 21.37695312 C-0.72998976 18.26442231 -0.80511587 15.1517921 -0.87890625 12.0390625 C-0.90594131 11.065065 -0.93297638 10.0910675 -0.96083069 9.08755493 C-0.98092697 8.18677216 -1.00102325 7.28598938 -1.02172852 6.35791016 C-1.04171402 5.56293121 -1.06169952 4.76795227 -1.08229065 3.94888306 C-1 2 -1 2 0 0 Z " fill="#CCAE9D" transform="translate(397,128)"/>
<path d="M0 0 C-4.65441745 4.09588736 -9.9178265 6.89025138 -15.3125 9.875 C-23.52464075 14.46649624 -31.69463085 19.11873622 -39.8125 23.875 C-48.40094652 28.90252111 -57.00410173 33.90330119 -65.625 38.875 C-66.65471924 39.46909668 -67.68443848 40.06319336 -68.74536133 40.67529297 C-69.74978271 41.25424316 -70.7542041 41.83319336 -71.7890625 42.4296875 C-72.78228516 43.02595947 -73.77550781 43.62223145 -74.79882812 44.23657227 C-77.18334579 45.55013016 -79.32976198 46.55601132 -81.84179688 47.52709961 C-85.9414072 49.23180371 -88.82611683 50.81995395 -92 54 C-94.31994952 60.25533407 -93.5480917 67.27038872 -93.25 73.8125 C-93.19179851 76.50973026 -93.15304191 79.20657486 -93.12005615 81.90422058 C-93.09259164 83.57628747 -93.04660804 85.24817663 -92.9800415 86.91914368 C-92.78679092 92.68018639 -92.78679092 92.68018639 -95 96 C-95 83.79 -95 71.58 -95 59 C-95.99 59.66 -96.98 60.32 -98 61 C-98.38327715 63.02799456 -98.38327715 63.02799456 -98.22265625 65.375 C-98.20267578 66.27009277 -98.18269531 67.16518555 -98.16210938 68.08740234 C-98.12923828 69.04855957 -98.09636719 70.0097168 -98.0625 71 C-97.86822906 81.16405437 -98.60911056 90.94088886 -100 101 C-100.33 101 -100.66 101 -101 101 C-101 85.16 -101 69.32 -101 53 C-94.874375 49.5040625 -94.874375 49.5040625 -88.625 45.9375 C-71.52836783 36.17129215 -54.45288646 26.36860111 -37.45776367 16.42651367 C-34.46302564 14.67644066 -31.46422299 12.93350938 -28.46484375 11.19140625 C-25.02027948 9.18903187 -21.5972324 7.15733519 -18.19140625 5.08984375 C-16.77356324 4.24718423 -15.35560376 3.40472063 -13.9375 2.5625 C-13.32503418 2.17852051 -12.71256836 1.79454102 -12.08154297 1.39892578 C-7.71633984 -1.15753885 -4.86771672 -1.14716891 0 0 Z " fill="#C9AB9E" transform="translate(292,11)"/>
<path d="M0 0 C0.33 0 0.66 0 1 0 C1.77385297 5.57394456 2.19046075 11.03313814 2.31640625 16.65625 C2.33718735 17.44398804 2.35796844 18.23172607 2.37937927 19.04333496 C2.44410974 21.52881206 2.50339906 24.01438333 2.5625 26.5 C2.60575823 28.19792592 2.64937468 29.89584275 2.69335938 31.59375 C2.79971113 35.72907325 2.90118749 39.86449001 3 44 C3.91499268 43.79987305 4.82998535 43.59974609 5.77270508 43.39355469 C9.06215311 42.9924207 9.94417187 42.99979559 12.63671875 44.703125 C13.28664795 45.10096191 13.93657715 45.49879883 14.60620117 45.90869141 C15.29302979 46.35132324 15.9798584 46.79395508 16.6875 47.25 C18.19724168 48.18078322 19.70768519 49.11042882 21.21875 50.0390625 C22.00121094 50.52665039 22.78367188 51.01423828 23.58984375 51.51660156 C27.5743907 53.96900303 31.63162855 56.29316023 35.6875 58.625 C37.29689038 59.55596299 38.90626567 60.48695208 40.515625 61.41796875 C43.20844251 62.97138643 45.9048412 64.51785637 48.609375 66.05078125 C55.53288892 69.97573104 62.37366976 74.01295678 69.1875 78.125 C75.21083775 81.75929911 81.24632411 85.31332445 87.45703125 88.62109375 C92.37594692 91.28833988 97.18097496 94.15736394 102 97 C99 99 99 99 96.4609375 98.98046875 C91.38901671 97.54361534 87.15883728 94.9624385 82.625 92.3125 C81.61477783 91.73161621 80.60455566 91.15073242 79.5637207 90.55224609 C76.36977765 88.71170219 73.18409937 86.85751341 70 85 C68.02214278 83.85024774 66.04427837 82.70050788 64.06640625 81.55078125 C60.10364579 79.24359309 56.14472208 76.92995367 52.1875 74.61328125 C46.81033202 71.46829122 41.42033059 68.34613398 36.02246094 65.23681641 C33.8170319 63.96425479 31.61449754 62.68666195 29.41503906 61.40380859 C24.38836329 58.47935007 19.35509491 55.634711 14.171875 52.99609375 C13.28282471 52.52840576 12.39377441 52.06071777 11.4777832 51.57885742 C9.84258805 50.72346413 8.19056943 49.89912897 6.52026367 49.11450195 C3.41554864 47.46080926 1.41770148 46.27713856 0.2956543 42.84643555 C-0.03802251 39.86824976 -0.04617901 36.9975165 0 34 C-0.01352262 32.6417231 -0.03092432 31.28348113 -0.05151367 29.92529297 C-0.10727502 25.38714753 -0.08768901 20.85079889 -0.0625 16.3125 C-0.05747247 14.72461079 -0.05291179 13.13672004 -0.04882812 11.54882812 C-0.03792755 7.69917975 -0.02073283 3.84960747 0 0 Z " fill="#75718C" transform="translate(190,132)"/>
<path d="M0 0 C2.60747203 2.60747203 3.43972658 5.19306327 4.8203125 8.6171875 C5.21559647 9.59753464 5.21559647 9.59753464 5.61886597 10.59768677 C6.17446277 11.98025766 6.72738627 13.3639054 7.27783203 14.74853516 C8.12037135 16.86338169 8.97562096 18.97277002 9.83203125 21.08203125 C10.37057212 22.42677104 10.90835769 23.77181361 11.4453125 25.1171875 C12.18031982 26.95192627 12.18031982 26.95192627 12.93017578 28.82373047 C14 32 14 32 14 36 C9.05 36 4.1 36 -1 36 C-2.53636976 32.10966019 -4.0544187 28.21379205 -5.5625 24.3125 C-6.00013672 23.20970703 -6.43777344 22.10691406 -6.88867188 20.97070312 C-7.29794922 19.90400391 -7.70722656 18.83730469 -8.12890625 17.73828125 C-8.51119385 16.75899658 -8.89348145 15.77971191 -9.28735352 14.77075195 C-10.07371556 11.71339573 -10.02836294 9.97159166 -9 7 C-6.625 5.875 -6.625 5.875 -4 5 C-2.1108127 3.3806966 -1.11300018 2.22600037 0 0 Z " fill="#79CFCB" transform="translate(309,130)"/>
<path d="M0 0 C4.95 0 9.9 0 15 0 C13.54455407 3.10555027 12.08578106 6.20946047 10.625 9.3125 C10.2125 10.19357422 9.8 11.07464844 9.375 11.98242188 C8.77558594 13.25375977 8.77558594 13.25375977 8.1640625 14.55078125 C7.79748535 15.33106689 7.4309082 16.11135254 7.05322266 16.9152832 C6 19 6 19 4 22 C3.34 22 2.68 22 2 22 C1.67 22.66 1.34 23.32 1 24 C-5.75 23.25 -5.75 23.25 -8 21 C-7.73243851 15.44981427 -5.99506788 11.35092859 -3.4375 6.5625 C-2.303125 4.396875 -1.16875 2.23125 0 0 Z " fill="#77D0CC" transform="translate(309,73)"/>
<path d="M0 0 C1.43836751 0.11458693 2.87570966 0.24209116 4.3125 0.375 C5.51326172 0.47941406 5.51326172 0.47941406 6.73828125 0.5859375 C9 1 9 1 12 3 C12 3.66 12 4.32 12 5 C12.71027344 5.12761719 13.42054688 5.25523438 14.15234375 5.38671875 C17.05252113 6.01131114 19.76225243 6.83494487 22.5625 7.8125 C23.49191406 8.12832031 24.42132813 8.44414063 25.37890625 8.76953125 C28.55123812 10.25877795 29.92797228 11.13006289 32 14 C32.59406332 17.51329847 32.5045114 20.99669912 32.45410156 24.55175781 C32.45468567 25.62523468 32.45526978 26.69871155 32.45587158 27.80471802 C32.45308387 31.35451543 32.42195805 34.90347419 32.390625 38.453125 C32.38316509 40.91363059 32.37747098 43.37414211 32.37347412 45.83465576 C32.35819829 52.31209707 32.31889906 58.78917987 32.2746582 65.26647949 C32.23374789 71.87552032 32.21547213 78.48461906 32.1953125 85.09375 C32.15240722 98.062653 32.08490024 111.03130743 32 124 C31.67 124 31.34 124 31 124 C30.98969254 123.25371841 30.97938507 122.50743683 30.96876526 121.73854065 C30.86930086 114.57951502 30.76662621 107.42054501 30.66066074 100.26161289 C30.6063351 96.58434196 30.55309841 92.90706314 30.50268555 89.22973633 C30.1945132 66.83617135 29.74219695 44.45734708 28.18359375 22.109375 C28.02336316 19.39568248 27.96424681 16.71724243 28 14 C27.34 13.67 26.68 13.34 26 13 C26 12.34 26 11.68 26 11 C25.27458008 11.37415039 24.54916016 11.74830078 23.80175781 12.13378906 C21 13 21 13 18.61230469 12.24902344 C17.80696289 11.79043945 17.00162109 11.33185547 16.171875 10.859375 C15.29015625 10.36566406 14.4084375 9.87195312 13.5 9.36328125 C12.5925 8.83089844 11.685 8.29851563 10.75 7.75 C9.82703125 7.23308594 8.9040625 6.71617188 7.953125 6.18359375 C1.15825732 2.31651465 1.15825732 2.31651465 0 0 Z " fill="#768E97" transform="translate(368,52)"/>
<path d="M0 0 C1.32 0.99 2.64 1.98 4 3 C3.67 5.64 3.34 8.28 3 11 C3.66 11.33 4.32 11.66 5 12 C5.34375 14.51953125 5.34375 14.51953125 5.5 17.8125 C5.84419853 23.41187254 6.54431023 28.81638631 7.52734375 34.3359375 C7.92104416 36.55497615 8.26316264 38.76684824 8.5625 41 C8.91846695 43.86509095 8.91846695 43.86509095 9.5625 46.0625 C10 48 10 48 9.875 50.9375 C10.01973576 54.48352619 11.06102909 56.09154364 13 59 C13 59.66 13 60.32 13 61 C14.65 61.33 16.3 61.66 18 62 C18 62.66 18 63.32 18 64 C19.65 64 21.3 64 23 64 C23 63.34 23 62.68 23 62 C29.75 61.875 29.75 61.875 32 63 C32 63.99 32 64.98 32 66 C24.74 66 17.48 66 10 66 C7.71358273 54.13877073 5.6814698 42.25295591 3.78295898 30.32373047 C3.30753909 27.34390616 2.82475557 24.36532936 2.34179688 21.38671875 C2.03601096 19.4740298 1.73065637 17.56127184 1.42578125 15.6484375 C1.28207596 14.76715179 1.13837067 13.88586609 0.99031067 12.97787476 C0.3015618 8.60230307 -0.16532578 4.44703711 0 0 Z " fill="#427885" transform="translate(225,100)"/>
<path d="M0 0 C0.66 0.99 1.32 1.98 2 3 C1.484375 3.825 0.96875 4.65 0.4375 5.5 C-1.55092433 10.34138097 -1.04377829 14.27051977 0.78125 19.04296875 C1.0596875 19.70941406 1.338125 20.37585938 1.625 21.0625 C3.28461542 25.11132022 2.96843982 27.77408078 2 32 C-1.33333333 33.33333333 -4.66666667 34.66666667 -8 36 C-9.32 33.36 -10.64 30.72 -12 28 C-13.32 30.64 -14.64 33.28 -16 36 C-16.33 36 -16.66 36 -17 36 C-16.91291331 34.54054712 -16.80473093 33.08234132 -16.6875 31.625 C-16.62949219 30.81289062 -16.57148438 30.00078125 -16.51171875 29.1640625 C-16 27 -16 27 -13 25 C-10.9375 25.375 -10.9375 25.375 -9 26 C-5.91990121 26 -3.68864864 24.4027732 -1 23 C-1.28109113 21.35232753 -1.57518526 19.70686855 -1.875 18.0625 C-2.03742188 17.14597656 -2.19984375 16.22945312 -2.3671875 15.28515625 C-2.57601563 14.53105469 -2.78484375 13.77695313 -3 13 C-3.66 12.67 -4.32 12.34 -5 12 C-3.35 8.04 -1.7 4.08 0 0 Z " fill="#37B5A3" transform="translate(306,103)"/>
<path d="M0 0 C6 0 6 0 8.8125 2.375 C11 5 11 5 12 7 C11.5625 9.125 11.5625 9.125 11 11 C12.65 11.33 14.3 11.66 16 12 C16 12.33 16 12.66 16 13 C10.72 13 5.44 13 0 13 C0 8.71 0 4.42 0 0 Z " fill="#67ABB1" transform="translate(325,73)"/>
<path d="M0 0 C4.95 0 9.9 0 15 0 C15.74028695 4.90987233 16.47039663 9.82111062 17.19116211 14.73388672 C17.43772482 16.40454769 17.68705189 18.07480315 17.93920898 19.74462891 C18.3014102 22.14644445 18.65360827 24.54954825 19.00390625 26.953125 C19.11843643 27.69806213 19.23296661 28.44299927 19.35096741 29.21051025 C19.85084917 32.70553679 20.26109736 35.64218454 19 39 C18 38 18 38 17.90234375 36.15234375 C17.93489583 34.1015625 17.96744792 32.05078125 18 30 C17.34 30 16.68 30 16 30 C15.67 28.35 15.34 26.7 15 25 C14.67 25 14.34 25 14 25 C14.02320313 24.09636719 14.04640625 23.19273438 14.0703125 22.26171875 C14.08835938 21.08222656 14.10640625 19.90273437 14.125 18.6875 C14.14820313 17.51574219 14.17140625 16.34398437 14.1953125 15.13671875 C14.25320618 11.83606339 14.25320618 11.83606339 12 9 C11.875 6.3125 11.875 6.3125 12 4 C9.07175348 3.02391783 7.04386724 2.91773332 4 3 C3.34 5.97 2.68 8.94 2 12 C1.67 12 1.34 12 1 12 C0.67 8.04 0.34 4.08 0 0 Z " fill="#416E7C" transform="translate(221,73)"/>
<path d="M0 0 C0.66 0 1.32 0 2 0 C0.33333333 6.66666667 -1.33333333 13.33333333 -3 20 C-7.95 20 -12.9 20 -18 20 C-17 18 -17 18 -15 16 C-14.1159863 14.96597185 -13.24141499 13.92381815 -12.375 12.875 C-11.59125 11.92625 -10.8075 10.9775 -10 10 C-8.68 10.66 -7.36 11.32 -6 12 C-5.18071114 10.75443908 -4.36984814 9.50333365 -3.5625 8.25 C-3.11003906 7.55390625 -2.65757812 6.8578125 -2.19140625 6.140625 C-1.0391991 4.07042986 -0.45323018 2.31303676 0 0 Z " fill="#4E8E9A" transform="translate(351,146)"/>
<path d="M0 0 C-1.875 3.875 -1.875 3.875 -3 5 C-3.10755149 6.4036579 -3.14679998 7.81262619 -3.15821838 9.22035217 C-3.17290161 10.58550713 -3.17290161 10.58550713 -3.18788147 11.97824097 C-3.19363693 12.98452545 -3.1993924 13.99080994 -3.20532227 15.02758789 C-3.21522186 16.08111954 -3.22512146 17.13465118 -3.23532104 18.22010803 C-3.26704295 21.72093416 -3.29173557 25.22177389 -3.31640625 28.72265625 C-3.33696656 31.14261743 -3.35796277 33.56257494 -3.37937927 35.98252869 C-3.43469535 42.36610961 -3.48406243 48.74972345 -3.53222656 55.13336182 C-3.58237215 61.64167221 -3.63809436 68.14993454 -3.69335938 74.65820312 C-3.8010575 87.43876078 -3.90266562 100.21935943 -4 113 C-4.33 113 -4.66 113 -5 113 C-5.07001958 98.56197479 -5.12275417 84.12397583 -5.15543652 69.68581581 C-5.17091852 62.98221798 -5.19203328 56.27872552 -5.22631836 49.57519531 C-5.25881885 43.11077119 -5.27683337 36.64645674 -5.28463173 30.18195724 C-5.290192 27.71068977 -5.30104919 25.23942857 -5.31719017 22.76820755 C-5.33884044 19.31750578 -5.3419721 15.86726222 -5.34057617 12.41650391 C-5.351362 11.38576248 -5.36214783 10.35502106 -5.3732605 9.29304504 C-5.36913651 8.35632462 -5.36501251 7.41960419 -5.36076355 6.45449829 C-5.36352893 5.63778971 -5.36629431 4.82108112 -5.36914349 3.97962379 C-5.24732614 3.32634794 -5.12550879 2.67307209 -5 2 C-2 0 -2 0 0 0 Z " fill="#37292B" transform="translate(204,63)"/>
<path d="M0 0 C2.875 -0.125 2.875 -0.125 6 0 C8 2 8 2 8.06225586 4.23583984 C7.25097989 12.35138025 6.15922788 20.41103397 4.89819336 28.46728516 C4.55778841 30.65528437 4.2308905 32.84505785 3.90429688 35.03515625 C3.68831218 36.43241745 3.47154521 37.82955801 3.25390625 39.2265625 C3.06127197 40.48033691 2.8686377 41.73411133 2.67016602 43.02587891 C2 46 2 46 0 48 C0.44888487 42.465846 1.12563398 37.01800944 2.078125 31.546875 C2.26890625 30.433125 2.4596875 29.319375 2.65625 28.171875 C3.05517789 25.87279056 3.46684144 23.57588292 3.890625 21.28125 C5.21915668 14.6034436 5.21915668 14.6034436 3.609375 8.203125 C3.07828125 7.47609375 2.5471875 6.7490625 2 6 C0.68 6.33 -0.64 6.66 -2 7 C-1.42415568 4.61435923 -0.77772405 2.33317216 0 0 Z " fill="#7FC6C1" transform="translate(262,74)"/>
<path d="M0 0 C2.6855594 2.6855594 3.06049974 5.37621328 4 9 C3.37351562 9.45890625 2.74703125 9.9178125 2.1015625 10.390625 C1.28429687 11.00421875 0.46703125 11.6178125 -0.375 12.25 C-1.18710937 12.85328125 -1.99921875 13.4565625 -2.8359375 14.078125 C-4.96826778 15.97181904 -5.94636704 17.38328518 -7 20 C-8.60385043 16.34829534 -10 13.15287512 -10 9.125 C-9 7 -9 7 -6.625 5.875 C-5.75875 5.58625 -4.8925 5.2975 -4 5 C-2.1108127 3.3806966 -1.11300018 2.22600037 0 0 Z " fill="#53BEB0" transform="translate(309,130)"/>
<path d="M0 0 C0.66 0.33 1.32 0.66 2 1 C2.87145837 3.68699663 3.34307127 5.26484728 2.125 7.875 C1.75375 8.57625 1.3825 9.2775 1 10 C0.62599214 12.32716 0.29235267 14.66117862 0 17 C-0.33333333 18.33333333 -0.66666667 19.66666667 -1 21 C-1 21.99 -1 22.98 -1 24 C-1.10337414 25.50164536 -1.23017249 27.0017844 -1.375 28.5 C-1.44460937 29.2734375 -1.51421875 30.046875 -1.5859375 30.84375 C-2 33 -2 33 -4 36 C-2.515 35.505 -2.515 35.505 -1 35 C-1 35.99 -1 36.98 -1 38 C-1.7734375 38.680625 -1.7734375 38.680625 -2.5625 39.375 C-3.036875 39.91125 -3.51125 40.4475 -4 41 C-3.76956136 43.65466049 -3.76956136 43.65466049 -3 46 C-3.66 46 -4.32 46 -5 46 C-5.33 47.32 -5.66 48.64 -6 50 C-6.37262538 39.31064114 -5.26757644 29.32928058 -3.5625 18.8125 C-3.32916678 17.31199039 -3.09674048 15.81133947 -2.86523438 14.31054688 C-1.18047383 3.54142149 -1.18047383 3.54142149 0 0 Z " fill="#75B9B9" transform="translate(255,90)"/>
<path d="M0 0 C1.32 0.33 2.64 0.66 4 1 C4 31.36 4 61.72 4 93 C3.01 92.67 2.02 92.34 1 92 C1.33 91.01 1.66 90.02 2 89 C2.11996454 86.30852044 2.18531849 83.6409636 2.20532227 80.94848633 C2.21522186 80.12874832 2.22512146 79.30901031 2.23532104 78.46443176 C2.26692009 75.75366102 2.2916872 73.04287275 2.31640625 70.33203125 C2.33697715 68.45301354 2.35797366 66.57400045 2.37937927 64.69499207 C2.43458586 59.7482985 2.4840014 54.80156326 2.53222656 49.85479736 C2.58245187 44.80745738 2.63813257 39.76017793 2.69335938 34.71289062 C2.80092368 24.80864546 2.90237253 14.90434775 3 5 C2.01 5 1.02 5 0 5 C0 3.35 0 1.7 0 0 Z " fill="#162E2E" transform="translate(271,73)"/>
<path d="M0 0 C4.62 0 9.24 0 14 0 C14 7.92 14 15.84 14 24 C11.75187801 19.50375603 11.75187801 19.50375603 11.83984375 15.92578125 C11.85080078 15.17619141 11.86175781 14.42660156 11.87304688 13.65429688 C11.90495117 12.49510742 11.90495117 12.49510742 11.9375 11.3125 C11.99906849 8.53735733 12.02065604 5.77676133 12 3 C10.93354885 1.70366379 10.93354885 1.70366379 8.4375 1.9375 C7.633125 1.958125 6.82875 1.97875 6 2 C6 2.66 6 3.32 6 4 C5.525625 4.391875 5.05125 4.78375 4.5625 5.1875 C1.5064157 8.73255779 1.95704287 13.5777758 2 18.0625 C2 21.53315636 1.67842486 24.60787569 1 28 C0.67 28 0.34 28 0 28 C0 18.76 0 9.52 0 0 Z " fill="#83C5C3" transform="translate(276,73)"/>
<path d="M0 0 C0.33 0 0.66 0 1 0 C1.144375 1.093125 1.28875 2.18625 1.4375 3.3125 C1.88288104 6.93122987 1.88288104 6.93122987 3 10 C2.67 10.33 2.34 10.66 2 11 C1.92680379 13.69654854 1.90757463 16.36691458 1.9375 19.0625 C1.94201172 19.82111328 1.94652344 20.57972656 1.95117188 21.36132812 C1.9629932 23.24091871 1.98092922 25.12046899 2 27 C2.66 27.33 3.32 27.66 4 28 C4.33 28.99 4.66 29.98 5 31 C7.31 31 9.62 31 12 31 C12.33 24.07 12.66 17.14 13 10 C13.33 10 13.66 10 14 10 C14 17.59 14 25.18 14 33 C9.38 33 4.76 33 0 33 C0 22.11 0 11.22 0 0 Z " fill="#7ECCC9" transform="translate(276,133)"/>
<path d="M0 0 C0.33 0 0.66 0 1 0 C1.77385297 5.57394456 2.19046075 11.03313814 2.31640625 16.65625 C2.33718735 17.44398804 2.35796844 18.23172607 2.37937927 19.04333496 C2.44410974 21.52881206 2.50339906 24.01438333 2.5625 26.5 C2.60575823 28.19792592 2.64937468 29.89584275 2.69335938 31.59375 C2.79971113 35.72907325 2.90118749 39.86449001 3 44 C3.62390625 44.13277344 4.2478125 44.26554687 4.890625 44.40234375 C7.35007214 45.09918711 8.34517707 46.09695363 10 48 C9.01 48.495 9.01 48.495 8 49 C4.84714693 47.89373576 3.26276026 47.3240807 1 45 C-1.38095934 36.14876785 -0.11323002 25.45251865 -0.0625 16.3125 C-0.05747247 14.72461079 -0.05291179 13.13672004 -0.04882812 11.54882812 C-0.03792755 7.69917975 -0.02073283 3.84960747 0 0 Z " fill="#6495A1" transform="translate(190,132)"/>
<path d="M0 0 C0.66 0.99 1.32 1.98 2 3 C1.19836586 5.43481416 0.34030222 7.57484488 -0.75 9.875 C-1.3076824 11.1013849 -1.86498093 12.32794443 -2.421875 13.5546875 C-2.94265625 14.69164063 -3.4634375 15.82859375 -4 17 C-5.43774525 20.26239205 -6.22848206 22.88419498 -6.4375 26.4375 C-6.80436376 30.50017647 -7.90767612 33.45214646 -10 37 C-10.33 37 -10.66 37 -11 37 C-11.29032531 31.24697483 -10.27525441 26.55562214 -8.625 21.0625 C-8.17868797 19.53284336 -7.73336807 18.00289689 -7.2890625 16.47265625 C-7.07008301 15.73096191 -6.85110352 14.98926758 -6.62548828 14.22509766 C-6.00695886 12.0247553 -5.48210788 9.81675483 -4.96875 7.58984375 C-3.95601523 3.83700806 -2.99062609 2.39250087 0 0 Z " fill="#74B1B3" transform="translate(350,110)"/>
<path d="M0 0 C10.89 0 21.78 0 33 0 C33 15 33 15 31 18 C30.80327635 16.27185839 30.61803201 14.54240803 30.4375 12.8125 C30.33308594 11.84957031 30.22867187 10.88664062 30.12109375 9.89453125 C30.00193579 7.0462716 30.39402081 4.76873318 31 2 C30.27409668 2.00523682 29.54819336 2.01047363 28.80029297 2.01586914 C25.49187088 2.03673497 22.18346269 2.04969069 18.875 2.0625 C17.16183594 2.07506836 17.16183594 2.07506836 15.4140625 2.08789062 C14.30546875 2.09111328 13.196875 2.09433594 12.0546875 2.09765625 C10.53077393 2.10551147 10.53077393 2.10551147 8.97607422 2.11352539 C5.90885274 1.99652309 3.01366866 1.56776417 0 1 C0 0.67 0 0.34 0 0 Z " fill="#48727F" transform="translate(336,73)"/>
<path d="M0 0 C1.43836751 0.11458693 2.87570966 0.24209116 4.3125 0.375 C5.51326172 0.47941406 5.51326172 0.47941406 6.73828125 0.5859375 C9 1 9 1 12 3 C12 3.66 12 4.32 12 5 C12.66 5.0825 13.32 5.165 14 5.25 C17.99039163 6.24759791 21.38549643 8.07166683 25 10 C24.01 10.99 23.02 11.98 22 13 C19.45574147 11.7550659 16.91465639 10.50426112 14.375 9.25 C13.30572266 8.72792969 13.30572266 8.72792969 12.21484375 8.1953125 C7.91415534 6.06469622 3.88873357 3.82147861 0 1 C0 0.67 0 0.34 0 0 Z " fill="#776C8B" transform="translate(368,52)"/>
<path d="M0 0 C0.33 0 0.66 0 1 0 C0.46205369 11.44702451 -1.21089814 22.58182943 -3.0625 33.875 C-3.34756272 35.64183722 -3.63207152 37.40876391 -3.91601562 39.17578125 C-4.6043115 43.45157649 -5.30003626 47.7261 -6 52 C-6.33 52 -6.66 52 -7 52 C-6.59623862 43.1278749 -6.0892864 34.38621512 -4.60546875 25.6171875 C-4.11507348 22.68747126 -3.66492231 19.75963093 -3.23828125 16.8203125 C-3.10599121 15.91192627 -2.97370117 15.00354004 -2.83740234 14.06762695 C-2.57414728 12.25393138 -2.31270583 10.43997148 -2.05322266 8.62573242 C-1.93124512 7.79662354 -1.80926758 6.96751465 -1.68359375 6.11328125 C-1.57587646 5.36860596 -1.46815918 4.62393066 -1.35717773 3.85668945 C-1 2 -1 2 0 0 Z " fill="#203335" transform="translate(256,74)"/>
<path d="M0 0 C3.63 1.65 7.26 3.3 11 5 C11 5.66 11 6.32 11 7 C12.32 7 13.64 7 15 7 C15 7.66 15 8.32 15 9 C16.32 9.33 17.64 9.66 19 10 C18.67 11.32 18.34 12.64 18 14 C13.42607283 11.79773877 8.92744323 9.48491828 4.5 7 C3.6440625 6.525625 2.788125 6.05125 1.90625 5.5625 C1.2771875 5.046875 0.648125 4.53125 0 4 C0 2.68 0 1.36 0 0 Z " fill="#78698B" transform="translate(344,35)"/>
<path d="M0 0 C1.95803507 -0.05389087 3.91648909 -0.09274217 5.875 -0.125 C7.51082031 -0.15980469 7.51082031 -0.15980469 9.1796875 -0.1953125 C12 0 12 0 14 2 C9.38 2 4.76 2 0 2 C0.30035156 3.75828125 0.60070312 5.5165625 0.91015625 7.328125 C1.29469314 9.63534632 1.67878458 11.94264192 2.0625 14.25 C2.26166016 15.40886719 2.46082031 16.56773438 2.66601562 17.76171875 C2.84970703 18.87675781 3.03339844 19.99179688 3.22265625 21.140625 C3.39547119 22.16704102 3.56828613 23.19345703 3.74633789 24.25097656 C3.98622385 26.85070308 3.82316264 28.54846267 3 31 C1.79832915 27.23476466 0.90758718 23.75224529 0.5625 19.8125 C0.02499119 14.05916494 -1.50234027 8.56677296 -3 3 C-2.34 3 -1.68 3 -1 3 C-0.67 2.01 -0.34 1.02 0 0 Z " fill="#1D3137" transform="translate(221,71)"/>
<path d="M0 0 C0.33 0.66 0.66 1.32 1 2 C2.98 2 4.96 2 7 2 C5.35648543 3.36176922 3.68477344 4.68962066 2 6 C0.88625 6.8971875 0.88625 6.8971875 -0.25 7.8125 C-4.2820725 9.55362222 -7.76421819 8.76594747 -12 8 C-8.2064129 4.78119883 -4.34170523 2.3836813 0 0 Z " fill="#D1AC9B" transform="translate(309,222)"/>
<path d="M0 0 C1.39456452 0.00667256 2.78911118 0.01863093 4.18359375 0.03515625 C4.89451172 0.03966797 5.60542969 0.04417969 6.33789062 0.04882812 C8.09899388 0.06064761 9.86005411 0.07858362 11.62109375 0.09765625 C9.97109375 3.72765625 8.32109375 7.35765625 6.62109375 11.09765625 C5.52450439 7.80788817 5.82156237 6.38461858 6.62109375 3.09765625 C3.32109375 3.09765625 0.02109375 3.09765625 -3.37890625 3.09765625 C-3.70890625 4.41765625 -4.03890625 5.73765625 -4.37890625 7.09765625 C-5.03890625 7.09765625 -5.69890625 7.09765625 -6.37890625 7.09765625 C-4.15199463 0.11999984 -4.15199463 0.11999984 0 0 Z " fill="#7DBABC" transform="translate(312.37890625,72.90234375)"/>
<path d="M0 0 C0.66 0 1.32 0 2 0 C2.33 0.66 2.66 1.32 3 2 C3.66 1.67 4.32 1.34 5 1 C4.43928103 8.00898714 1.96457185 12.17727306 -3 17 C-2.54775239 11.08507728 -1.8417395 5.64800112 0 0 Z " fill="#61A5B1" transform="translate(337,148)"/>
<path d="M0 0 C1.93873142 0.95583968 3.8759433 1.91476192 5.8125 2.875 C6.89144531 3.40867188 7.97039062 3.94234375 9.08203125 4.4921875 C12 6 12 6 15 8 C15 8.66 15 9.32 15 10 C13.741875 10.04125 12.48375 10.0825 11.1875 10.125 C10.47980469 10.14820313 9.77210938 10.17140625 9.04296875 10.1953125 C7 10 7 10 4 8 C4 7.01 4 6.02 4 5 C3.01 5 2.02 5 1 5 C1 4.34 1 3.68 1 3 C0.34 2.34 -0.32 1.68 -1 1 C-0.67 0.67 -0.34 0.34 0 0 Z " fill="#736E89" transform="translate(260,211)"/>
<path d="M0 0 C2.35321634 4.70643269 2.93993092 8.8443512 3.6875 14 C3.82994141 14.90234375 3.97238281 15.8046875 4.11914062 16.734375 C4.24869141 17.60578125 4.37824219 18.4771875 4.51171875 19.375 C4.62990967 20.16648437 4.74810059 20.95796875 4.86987305 21.7734375 C5.00479164 24.08198828 4.68138093 25.80252297 4 28 C3 27 3 27 2.90234375 25.15234375 C2.93489583 23.1015625 2.96744792 21.05078125 3 19 C2.34 19 1.68 19 1 19 C0.67 17.35 0.34 15.7 0 14 C-0.33 14 -0.66 14 -1 14 C-0.67 9.38 -0.34 4.76 0 0 Z " fill="#508690" transform="translate(236,84)"/>
<path d="M0 0 C0.66 0.33 1.32 0.66 2 1 C2.87145837 3.68699663 3.34307127 5.26484728 2.125 7.875 C1.75375 8.57625 1.3825 9.2775 1 10 C0.855625 11.051875 0.71125 12.10375 0.5625 13.1875 C-0.10202298 17.69148906 -1.46083203 21.73098696 -3 26 C-3.94717709 22.93751864 -3.99603768 20.71139816 -3.4765625 17.55859375 C-3.3425 16.72779297 -3.2084375 15.89699219 -3.0703125 15.04101562 C-2.92335937 14.18185547 -2.77640625 13.32269531 -2.625 12.4375 C-2.48578125 11.57447266 -2.3465625 10.71144531 -2.203125 9.82226562 C-1.644351 6.43008574 -1.08950432 3.26851295 0 0 Z " fill="#79BAB8" transform="translate(255,90)"/>
<path d="M0 0 C0.33 0 0.66 0 1 0 C1.02736707 1.39572052 1.04655989 2.79160221 1.0625 4.1875 C1.07410156 4.96480469 1.08570313 5.74210938 1.09765625 6.54296875 C1 9 1 9 0.53125 11.28125 C-0.18485159 14.94600518 -0.35951388 18.58886931 -0.5625 22.3125 C-0.60568359 23.05306641 -0.64886719 23.79363281 -0.69335938 24.55664062 C-0.79870432 26.37091464 -0.89978316 28.1854355 -1 30 C-1.99 30 -2.98 30 -4 30 C-2.8699192 19.9615163 -1.63014389 9.97162487 0 0 Z " fill="#293E41" transform="translate(262,128)"/>
<path d="M0 0 C0.99 0 1.98 0 3 0 C3.33 1.32 3.66 2.64 4 4 C3.44570313 4.38671875 2.89140625 4.7734375 2.3203125 5.171875 C1.23363281 5.95304688 1.23363281 5.95304688 0.125 6.75 C-0.59429687 7.26046875 -1.31359375 7.7709375 -2.0546875 8.296875 C-4.36808528 10.10555432 -4.36808528 10.10555432 -6 14 C-6.33 11.03 -6.66 8.06 -7 5 C-5.68 5 -4.36 5 -3 5 C-1.96986723 3.35178756 -0.96885372 1.68496298 0 0 Z " fill="#5EC9BE" transform="translate(308,136)"/>
<path d="M0 0 C0.66 0.99 1.32 1.98 2 3 C1.28515625 5.19140625 1.28515625 5.19140625 0.0625 7.5625 C-1.15158995 9.86019899 -1.15158995 9.86019899 -2 12 C-1.67 12.66 -1.34 13.32 -1 14 C-2.65 14.66 -4.3 15.32 -6 16 C-8.03684712 11.92630576 -8.0257259 9.41062136 -7 5 C-6.67 5 -6.34 5 -6 5 C-5.67 6.98 -5.34 8.96 -5 11 C-3.35 7.37 -1.7 3.74 0 0 Z " fill="#38A998" transform="translate(296,99)"/>
<path d="M0 0 C0.99 0.33 1.98 0.66 3 1 C-1.77513836 5.28115853 -7.36156231 8.03759841 -13 11 C-13 9 -13 7 -13 5 C-11.58603098 4.49242138 -10.16868271 3.99425075 -8.75 3.5 C-7.96109375 3.2215625 -7.1721875 2.943125 -6.359375 2.65625 C-4 2 -4 2 0 2 C0 1.34 0 0.68 0 0 Z " fill="#D6AA98" transform="translate(268,22)"/>
<path d="M0 0 C1.9451 2.91765 2.45276317 4.62537285 3 8 C2.34 8 1.68 8 1 8 C1 7.01 1 6.02 1 5 C0.34 5 -0.32 5 -1 5 C-1 5.99 -1 6.98 -1 8 C-1.66 8 -2.32 8 -3 8 C-3 16.91 -3 25.82 -3 35 C-3.33 35 -3.66 35 -4 35 C-4.11668418 30.47938558 -4.18741645 25.95916153 -4.25 21.4375 C-4.28351563 20.16068359 -4.31703125 18.88386719 -4.3515625 17.56835938 C-4.42498716 10.50123591 -4.35913076 5.70634243 0 0 Z " fill="#142F30" transform="translate(294,129)"/>
<path d="M0 0 C3.36338044 3.36338044 4 6.28835716 4 11 C-0.95 11 -5.9 11 -11 11 C-11 10.34 -11 9.68 -11 9 C-8.36 9.33 -5.72 9.66 -3 10 C-3 9.34 -3 8.68 -3 8 C-2.01 8 -1.02 8 0 8 C0 5.36 0 2.72 0 0 Z " fill="#75B2B4" transform="translate(319,155)"/>
<path d="M0 0 C0.66 0 1.32 0 2 0 C0.33333333 6.66666667 -1.33333333 13.33333333 -3 20 C-5.64 20 -8.28 20 -11 20 C-11 19.67 -11 19.34 -11 19 C-9.35 19 -7.7 19 -6 19 C-5.814375 17.91912109 -5.814375 17.91912109 -5.625 16.81640625 C-5.00260484 14.01173808 -4.11182197 11.58216475 -3 8.9375 C-1.75801236 5.97408096 -0.69608521 3.13963431 0 0 Z " fill="#4A7A85" transform="translate(351,146)"/>
<path d="M0 0 C2.875 -0.125 2.875 -0.125 6 0 C8 2 8 2 8.125 5.125 C8.08375 6.07375 8.0425 7.0225 8 8 C7.67 7.34 7.34 6.68 7 6 C5.17323569 5.14681461 5.17323569 5.14681461 3 5 C0.78228936 5.85790183 0.78228936 5.85790183 -1 7 C-2 4 -2 4 -1.0625 1.8125 C-0.5365625 0.9153125 -0.5365625 0.9153125 0 0 Z " fill="#6EB4B9" transform="translate(262,74)"/>
<path d="M0 0 C2.09749995 2.35968744 2.96905704 3.54616994 3.1875 6.75 C3.125625 7.4925 3.06375 8.235 3 9 C1.68 9.33 0.36 9.66 -1 10 C-0.67 10.556875 -0.34 11.11375 0 11.6875 C1.1309601 14.30284522 1.15662974 16.1806646 1 19 C-1.73711824 14.89432264 -3.10207078 12.45450863 -2.75 7.4375 C-2.12483636 4.57216663 -1.49348587 2.48914312 0 0 Z " fill="#1B3531" transform="translate(307,106)"/>
<path d="M0 0 C1.22963633 3.68890899 1.55670401 7.13699206 2 11 C2.66 8.69 3.32 6.38 4 4 C4.33 4 4.66 4 5 4 C4.85805236 6.06277107 4.71127784 8.12521031 4.5625 10.1875 C4.48128906 11.33605469 4.40007812 12.48460937 4.31640625 13.66796875 C4.04596188 16.51598171 3.62478253 19.21210482 3 22 C1.05892181 19.08838271 0.69140055 18.106234 0.33203125 14.8046875 C0.24373047 14.00675781 0.15542969 13.20882812 0.06445312 12.38671875 C-0.01869141 11.55785156 -0.10183594 10.72898438 -0.1875 9.875 C-0.28224609 9.03839844 -0.37699219 8.20179688 -0.47460938 7.33984375 C-0.69846403 5.23116707 -0.85489731 3.11555511 -1 1 C-0.67 0.67 -0.34 0.34 0 0 Z " fill="#223B3D" transform="translate(244,124)"/>
<path d="M0 0 C3.40202433 1.28924356 6.50564554 2.7652076 9.64453125 4.6015625 C10.48564453 5.09140625 11.32675781 5.58125 12.19335938 6.0859375 C13.05767578 6.59382813 13.92199219 7.10171875 14.8125 7.625 C15.69615234 8.140625 16.57980469 8.65625 17.49023438 9.1875 C19.66194789 10.45531114 21.8317818 11.72622348 24 13 C23.01 13.33 22.02 13.66 21 14 C19.30712215 13.04504326 17.64142963 12.0409066 16 11 C14.9790625 10.7834375 14.9790625 10.7834375 13.9375 10.5625 C12 10 12 10 10.1875 8.0625 C7.36760087 5.40373796 4.72714368 4.86011008 1 4 C0.67 2.68 0.34 1.36 0 0 Z " fill="#6F8397" transform="translate(368,47)"/>
<path d="M0 0 C4.00748653 0.58487641 6.85736768 1.84394575 10.3125 3.9375 C11.19550781 4.46214844 12.07851562 4.98679688 12.98828125 5.52734375 C13.65214844 6.01332031 14.31601563 6.49929687 15 7 C15 7.66 15 8.32 15 9 C13.68 9 12.36 9 11 9 C11 8.34 11 7.68 11 7 C8.03 6.505 8.03 6.505 5 6 C5 5.34 5 4.68 5 4 C2.525 3.01 2.525 3.01 0 2 C0 1.34 0 0.68 0 0 Z " fill="#776885" transform="translate(235,198)"/>
<path d="M0 0 C0.598125 0.20625 1.19625 0.4125 1.8125 0.625 C1.8125 1.945 1.8125 3.265 1.8125 4.625 C2.4725 4.625 3.1325 4.625 3.8125 4.625 C3.8125 6.605 3.8125 8.585 3.8125 10.625 C1.40328295 8.21578295 0.27437844 5.68165491 -1.1875 2.625 C-2.5075 5.265 -3.8275 7.905 -5.1875 10.625 C-5.5175 10.625 -5.8475 10.625 -6.1875 10.625 C-6.10041331 9.16554712 -5.99223093 7.70734132 -5.875 6.25 C-5.81699219 5.43789062 -5.75898438 4.62578125 -5.69921875 3.7890625 C-4.93042906 0.53784505 -3.29834961 -0.56543136 0 0 Z " fill="#41AB9A" transform="translate(295.1875,128.375)"/>
<path d="M0 0 C2 2 2 2 2 5 C2.66 5.33 3.32 5.66 4 6 C3.67 6.33 3.34 6.66 3 7 C3 7.99 3 8.98 3 10 C2.67 10.66 2.34 11.32 2 12 C1.34 12 0.68 12 0 12 C-0.33 14.31 -0.66 16.62 -1 19 C-1.66 19 -2.32 19 -3 19 C-2.52396226 16.87429688 -2.04407402 14.74945573 -1.5625 12.625 C-1.29566406 11.44164063 -1.02882813 10.25828125 -0.75390625 9.0390625 C0 6 0 6 1 4 C-0.65 4 -2.3 4 -4 4 C-2.68 2.68 -1.36 1.36 0 0 Z " fill="#4B7E89" transform="translate(353,82)"/>
<path d="M0 0 C0.33 0 0.66 0 1 0 C1 4.29 1 8.58 1 13 C0.34 13 -0.32 13 -1 13 C-1.33 11.68 -1.66 10.36 -2 9 C-3.485 11.475 -3.485 11.475 -5 14 C-5.66 13.67 -6.32 13.34 -7 13 C-6.02325896 11.01963514 -5.04354018 9.04073867 -4.0625 7.0625 C-3.51722656 5.96035156 -2.97195313 4.85820313 -2.41015625 3.72265625 C-1 1 -1 1 0 0 Z " fill="#1B3135" transform="translate(324,73)"/>
<path d="M0 0 C0.33 0.99 0.66 1.98 1 3 C3.01508358 3.73323796 3.01508358 3.73323796 5 4 C3.71186658 4.83878455 2.41936744 5.67086783 1.125 6.5 C0.40570313 6.9640625 -0.31359375 7.428125 -1.0546875 7.90625 C-3 9 -3 9 -5 9 C-4.67 7.68 -4.34 6.36 -4 5 C-5.65 5.33 -7.3 5.66 -9 6 C-6.11964908 3.75972706 -3.15133488 1.83827868 0 0 Z " fill="#C2AB9B" transform="translate(373,185)"/>
<path d="M0 0 C0.33 0 0.66 0 1 0 C1 7.59 1 15.18 1 23 C-3.62 23 -8.24 23 -13 23 C-13 22.67 -13 22.34 -13 22 C-9.04 21.67 -5.08 21.34 -1 21 C-0.67 14.07 -0.34 7.14 0 0 Z " fill="#84C6C3" transform="translate(289,143)"/>
<path d="M0 0 C1.32 0 2.64 0 4 0 C4 0.66 4 1.32 4 2 C7.465 1.505 7.465 1.505 11 1 C11.33 1.66 11.66 2.32 12 3 C11.67 3.66 11.34 4.32 11 5 C13.475 5.99 13.475 5.99 16 7 C16 7.66 16 8.32 16 9 C10.0942118 7.44584521 5.02261107 4.40465533 0 1 C0 0.67 0 0.34 0 0 Z " fill="#6F7C93" transform="translate(224,195)"/>
<path d="M0 0 C0 0.99 0 1.98 0 3 C-1.98 3.66 -3.96 4.32 -6 5 C-6 5.66 -6 6.32 -6 7 C-7.65 7.33 -9.3 7.66 -11 8 C-11.33 7.34 -11.66 6.68 -12 6 C-11.34 6 -10.68 6 -10 6 C-9.67 5.01 -9.34 4.02 -9 3 C-5.62132353 0.53447933 -4.29441798 0 0 0 Z " fill="#E2AD9A" transform="translate(384,181)"/>
<path d="M0 0 C0.33 0 0.66 0 1 0 C0.91283383 2.58492789 0.80594881 5.16647502 0.6875 7.75 C0.66494141 8.47960937 0.64238281 9.20921875 0.61914062 9.9609375 C0.40938162 14.15611767 0.1446214 17.04949103 -3 20 C-3.66 20 -4.32 20 -5 20 C-3.33333333 13.33333333 -1.66666667 6.66666667 0 0 Z " fill="#24363C" transform="translate(358,124)"/>
<path d="M0 0 C0.66 0.99 1.32 1.98 2 3 C1.484375 3.825 0.96875 4.65 0.4375 5.5 C-1.76770817 10.86920251 -0.6107487 15.47743303 1 21 C0.34 21 -0.32 21 -1 21 C-2.25664978 18.09399739 -3 16.20395416 -3 13 C-3.66 12.67 -4.32 12.34 -5 12 C-3.35 8.04 -1.7 4.08 0 0 Z " fill="#35A190" transform="translate(306,103)"/>
<path d="M0 0 C-0.45375 0.4125 -0.9075 0.825 -1.375 1.25 C-3.09686822 2.92669589 -3.09686822 2.92669589 -4 5.125 C-5 7 -5 7 -8 8 C-8.33 5.69 -8.66 3.38 -9 1 C-3.375 -1.125 -3.375 -1.125 0 0 Z " fill="#E0AB9A" transform="translate(202,63)"/>
<path d="M0 0 C0.66 0.33 1.32 0.66 2 1 C0.06745228 3.0245738 -1.63158688 4.42105792 -4 6 C-4 6.99 -4 7.98 -4 9 C-4.99 9.33 -5.98 9.66 -7 10 C-7 9.34 -7 8.68 -7 8 C-8.98 8.33 -10.96 8.66 -13 9 C-10.59497637 6.36479259 -7.9814151 4.59697057 -4.9375 2.75 C-4.05964844 2.20859375 -3.18179688 1.6671875 -2.27734375 1.109375 C-1.52582031 0.74328125 -0.77429688 0.3771875 0 0 Z " fill="#B9AC9D" transform="translate(215,50)"/>
<path d="M0 0 C8.19256018 0.35010941 8.19256018 0.35010941 11.5625 3.0625 C12.036875 3.701875 12.51125 4.34125 13 5 C12.67 5.99 12.34 6.98 12 8 C9.99743426 6.85865673 7.99800203 5.71181367 6 4.5625 C4.88625 3.92441406 3.7725 3.28632812 2.625 2.62890625 C1.75875 2.09136719 0.8925 1.55382813 0 1 C0 0.67 0 0.34 0 0 Z " fill="#726783" transform="translate(368,52)"/>
<path d="M0 0 C0.33 0.99 0.66 1.98 1 3 C-2 5 -2 5 -6 5 C-6 5.99 -6 6.98 -6 8 C-7.32 8 -8.64 8 -10 8 C-9.9375 6.25 -9.9375 6.25 -9 4 C-6.29950956 1.99159505 -3.44873267 0 0 0 Z " fill="#DFAB97" transform="translate(332,210)"/>
<path d="M0 0 C0.99 0 1.98 0 3 0 C3.33 0.66 3.66 1.32 4 2 C1.93814793 5.0927781 1.09630198 5.68076198 -2.125 7.1875 C-3.21167969 7.70376953 -3.21167969 7.70376953 -4.3203125 8.23046875 C-4.87460937 8.48441406 -5.42890625 8.73835937 -6 9 C-6 7.02 -6 5.04 -6 3 C-5.01 3 -4.02 3 -3 3 C-2.505 2.505 -2.01 2.01 -1.5 1.5 C-1.005 1.005 -0.51 0.51 0 0 Z " fill="#3FBCAB" transform="translate(305,130)"/>
<path d="M0 0 C0.99 0.33 1.98 0.66 3 1 C2.67128906 1.70253906 2.34257812 2.40507813 2.00390625 3.12890625 C0.89804994 6.29156925 0.8301976 8.60254148 0.9375 11.9375 C1.01446541 16.09876338 0.90808388 19.91362253 0 24 C-0.33 24 -0.66 24 -1 24 C-1.02893932 20.37501666 -1.04677792 16.75006287 -1.0625 13.125 C-1.07087891 12.09246094 -1.07925781 11.05992188 -1.08789062 9.99609375 C-1.09111328 9.00996094 -1.09433594 8.02382812 -1.09765625 7.0078125 C-1.10289307 6.09660645 -1.10812988 5.18540039 -1.11352539 4.24658203 C-1 2 -1 2 0 0 Z " fill="#7CD2CC" transform="translate(277,77)"/>
<path d="M0 0 C0.99 0.99 1.98 1.98 3 3 C3 3.99 3 4.98 3 6 C3.99 6.33 4.98 6.66 6 7 C6.99 8.485 6.99 8.485 8 10 C5.36 10 2.72 10 0 10 C0 6.7 0 3.4 0 0 Z " fill="#7FBBBD" transform="translate(325,76)"/>
<path d="M0 0 C5.28137429 0.51525603 8.57221156 2.25477117 13 5 C12.67 5.66 12.34 6.32 12 7 C10.68 7 9.36 7 8 7 C8 6.34 8 5.68 8 5 C6.68 5 5.36 5 4 5 C4 4.34 4 3.68 4 3 C2.68 2.34 1.36 1.68 0 1 C0 0.67 0 0.34 0 0 Z " fill="#766A88" transform="translate(220,190)"/>
<path d="M0 0 C6.75 -0.125 6.75 -0.125 9 1 C9 1.99 9 2.98 9 4 C7.5629191 4.05422947 6.12524538 4.09289723 4.6875 4.125 C3.88699219 4.14820313 3.08648437 4.17140625 2.26171875 4.1953125 C0 4 0 4 -3 2 C-2.01 2 -1.02 2 0 2 C0 1.34 0 0.68 0 0 Z " fill="#4D8B96" transform="translate(248,162)"/>
<path d="M0 0 C1.32 0.33 2.64 0.66 4 1 C4 1.66 4 2.32 4 3 C-2.27692308 7.06153846 -2.27692308 7.06153846 -5.9375 6.75 C-6.618125 6.5025 -7.29875 6.255 -8 6 C-5 4 -5 4 -2.875 3.5625 C-1.946875 3.2840625 -1.946875 3.2840625 -1 3 C-0.67 2.01 -0.34 1.02 0 0 Z " fill="#DDAC99" transform="translate(217,50)"/>
<path d="M0 0 C-1.65 1.32 -3.3 2.64 -5 4 C-5.66 3.34 -6.32 2.68 -7 2 C-9.60280568 2.32041397 -9.60280568 2.32041397 -12 3 C-12 3.66 -12 4.32 -12 5 C-13.32 4.67 -14.64 4.34 -16 4 C-10.30185919 0.26584423 -6.74036783 -1.86435706 0 0 Z " fill="#B1AB9B" transform="translate(292,11)"/>
<path d="M0 0 C0.33 0 0.66 0 1 0 C0.37968409 6.57534861 -1.14897283 12.66692592 -3 19 C-3.33 19 -3.66 19 -4 19 C-4.21755666 13.5610835 -4.10428384 9.12919186 -2 4 C-1.34 4 -0.68 4 0 4 C0 2.68 0 1.36 0 0 Z " fill="#437680" transform="translate(364,98)"/>
<path d="M0 0 C1.32 0.99 2.64 1.98 4 3 C3.835 4.175625 3.67 5.35125 3.5 6.5625 C3.01271488 10.41273873 2.91922043 14.12258073 3 18 C0.73150334 14.34827367 0.6104049 10.9872882 0.375 6.75 C0.30023438 5.48671875 0.22546875 4.2234375 0.1484375 2.921875 C0.09945312 1.95765625 0.05046875 0.9934375 0 0 Z " fill="#406D78" transform="translate(225,100)"/>
<path d="M0 0 C0.66 0 1.32 0 2 0 C0.56390017 6.73862227 -1.14008287 13.36629557 -3 20 C-3.33 20 -3.66 20 -4 20 C-4.35724142 13.03379238 -2.86599315 6.34612769 0 0 Z " fill="#233437" transform="translate(339,135)"/>
<path d="M0 0 C0.99 1.32 1.98 2.64 3 4 C1.02 6.97 1.02 6.97 -1 10 C-3 9 -3 9 -3.875 6.6875 C-4 4 -4 4 -2.0625 1.6875 C-1.381875 1.130625 -0.70125 0.57375 0 0 Z " fill="#84D3D1" transform="translate(309,77)"/>
<path d="M0 0 C0.33 0 0.66 0 1 0 C1.10655485 5.11463289 0.93976754 9.95942862 0 15 C-0.99 15.66 -1.98 16.32 -3 17 C-2.54775239 11.08507728 -1.8417395 5.64800112 0 0 Z " fill="#64999D" transform="translate(337,148)"/>
<path d="M0 0 C0.33 0 0.66 0 1 0 C1.07654536 4.51617599 1.10228696 8.59085217 0 13 C-1.5625 12 -1.5625 12 -3 10 C-3.06745073 7.25138256 -2.74713966 4.64588557 -2 2 C-1.34 1.34 -0.68 0.68 0 0 Z " fill="#85CBC7" transform="translate(260,133)"/>
<path d="M0 0 C4.29 0 8.58 0 13 0 C11.35 3.63 9.7 7.26 8 11 C6.68776504 7.06329512 7.75703744 4.87511856 9 1 C6.03 1 3.06 1 0 1 C0 0.67 0 0.34 0 0 Z " fill="#7DADAE" transform="translate(311,73)"/>
<path d="M0 0 C0 1.32 0 2.64 0 4 C-0.66 4 -1.32 4 -2 4 C-2 4.66 -2 5.32 -2 6 C-3.98 6 -5.96 6 -8 6 C-6.72879117 2.18637351 -4.19078006 0 0 0 Z " fill="#DFAC9B" transform="translate(318,218)"/>
<path d="M0 0 C0.99 0.33 1.98 0.66 3 1 C2.57630928 2.6286551 2.1355377 4.25287378 1.6875 5.875 C1.44386719 6.77992187 1.20023437 7.68484375 0.94921875 8.6171875 C0 11 0 11 -3 13 C-2.45144652 8.428721 -1.58255197 4.32564205 0 0 Z " fill="#64999F" transform="translate(350,101)"/>
<path d="M0 0 C0.33 0 0.66 0 1 0 C2.0748291 6.27467799 1.88341198 10.90660831 0 17 C-0.66 16.67 -1.32 16.34 -2 16 C-1.34 10.72 -0.68 5.44 0 0 Z " fill="#243C3D" transform="translate(267,96)"/>
<path d="M0 0 C0.66 0.99 1.32 1.98 2 3 C1.125 5.6875 1.125 5.6875 0 8 C-0.66 7.67 -1.32 7.34 -2 7 C-2.66 8.32 -3.32 9.64 -4 11 C-5.06544301 7.80367098 -5.19353531 7.02974348 -4 4 C-1.9375 1.75 -1.9375 1.75 0 0 Z " fill="#68A7AD" transform="translate(350,110)"/>
<path d="M0 0 C4.62 0 9.24 0 14 0 C14 1.65 14 3.3 14 5 C13.41798828 4.26330078 13.41798828 4.26330078 12.82421875 3.51171875 C10.38788304 1.49274247 8.93069328 1.69101195 5.8125 1.8125 C4.46091797 1.85310547 4.46091797 1.85310547 3.08203125 1.89453125 C2.39496094 1.92933594 1.70789063 1.96414062 1 2 C0.67 2.66 0.34 3.32 0 4 C0 2.68 0 1.36 0 0 Z " fill="#6A9699" transform="translate(257,73)"/>
<path d="M0 0 C-0.99 0.33 -1.98 0.66 -3 1 C-4.11375 0.2884375 -4.11375 0.2884375 -5.25 -0.4375 C-8.68317166 -2.38816572 -11.11196874 -2.07335908 -15 -2 C-15.66 -2.66 -16.32 -3.32 -17 -4 C-10.42591945 -6.27564327 -5.49281954 -3.40554811 0 0 Z " fill="#698594" transform="translate(314,15)"/>
<path d="M0 0 C1.95979427 0.28168297 3.91782378 0.57566717 5.875 0.875 C7.51082031 1.11863281 7.51082031 1.11863281 9.1796875 1.3671875 C12 2 12 2 14 4 C9.60993163 5.07511878 6.95377757 5.3257941 3.0625 3.0625 C2.051875 2.381875 1.04125 1.70125 0 1 C0 0.67 0 0.34 0 0 Z " fill="#6C8295" transform="translate(278,226)"/>
<path d="M0 0 C2.97 0.495 2.97 0.495 6 1 C6 1.66 6 2.32 6 3 C6.928125 3.2165625 6.928125 3.2165625 7.875 3.4375 C10 4 10 4 12 5 C12 5.66 12 6.32 12 7 C7.39104317 5.68315519 3.85859765 3.84801255 0 1 C0 0.67 0 0.34 0 0 Z " fill="#6B8295" transform="translate(240,204)"/>
<path d="M0 0 C1.32 0.99 2.64 1.98 4 3 C4.50031009 8.25325593 4.39697276 10.20605447 2 15 C1.34 10.05 0.68 5.1 0 0 Z " fill="#40747E" transform="translate(231,142)"/>
<path d="M0 0 C0 3 0 3 -2.125 5.1875 C-5.41557542 7.2619932 -7.18634321 7.35475877 -11 7 C-7.54319097 4.23455278 -3.85658398 2.15078722 0 0 Z " fill="#382B24" transform="translate(237,43)"/>
<path d="M0 0 C4.97209562 1.76429199 9.43438061 4.3939166 14 7 C12.68 7.33 11.36 7.66 10 8 C10 7.34 10 6.68 10 6 C8.906875 5.71125 7.81375 5.4225 6.6875 5.125 C3 4 3 4 0 2 C0 1.34 0 0.68 0 0 Z " fill="#6B8497" transform="translate(345,34)"/>
<path d="M0 0 C0.33 0 0.66 0 1 0 C1.28571429 7.42857143 1.28571429 7.42857143 -1 11 C-1.66 11 -2.32 11 -3 11 C-2.53199289 6.94393835 -2.12046792 3.53411321 0 0 Z " fill="#213137" transform="translate(362,113)"/>
<path d="M0 0 C-4.455 2.97 -4.455 2.97 -9 6 C-9.33 5.01 -9.66 4.02 -10 3 C-4.5 -1.125 -4.5 -1.125 0 0 Z " fill="#3D2925" transform="translate(372,186)"/>
<path d="M0 0 C2 2 2 2 2.125 5.125 C2.08375 6.07375 2.0425 7.0225 2 8 C2.66 8 3.32 8 4 8 C3.67 8.99 3.34 9.98 3 11 C2.34 11 1.68 11 1 11 C0.63743142 9.5437328 0.28520207 8.08488815 -0.0625 6.625 C-0.35833984 5.40683594 -0.35833984 5.40683594 -0.66015625 4.1640625 C-1 2 -1 2 0 0 Z " fill="#233033" transform="translate(322,155)"/>
<path d="M0 0 C1.9451 2.91765 2.45276317 4.62537285 3 8 C2.34 8 1.68 8 1 8 C1 7.01 1 6.02 1 5 C0.34 5 -0.32 5 -1 5 C-1 5.99 -1 6.98 -1 8 C-1.99 8.33 -2.98 8.66 -4 9 C-2.80100302 5.9168649 -1.52299523 2.93720508 0 0 Z " fill="#153D38" transform="translate(294,129)"/>
<path d="M0 0 C2 1 2 1 4 4 C2.3125 5.125 2.3125 5.125 0 6 C-2.75 5.125 -2.75 5.125 -5 4 C-3.35 2.68 -1.7 1.36 0 0 Z " fill="#C3AA9A" transform="translate(234,39)"/>
<path d="M0 0 C0.66 0.33 1.32 0.66 2 1 C2 5.24645065 0.18249194 7.38524772 -2 11 C-2.33 11 -2.66 11 -3 11 C-2.53199289 6.94393835 -2.12046792 3.53411321 0 0 Z " fill="#79CBC2" transform="translate(304,83)"/>
<path d="M0 0 C0.33 0.66 0.66 1.32 1 2 C4.465 1.505 4.465 1.505 8 1 C6.79296875 2.51953125 6.79296875 2.51953125 5 4 C2.73828125 4.07421875 2.73828125 4.07421875 0.3125 3.6875 C-0.89986328 3.50767578 -0.89986328 3.50767578 -2.13671875 3.32421875 C-2.75160156 3.21722656 -3.36648438 3.11023438 -4 3 C-2.68 2.01 -1.36 1.02 0 0 Z " fill="#A7AF9D" transform="translate(301,227)"/>
<path d="M0 0 C0.66 0.33 1.32 0.66 2 1 C1.67 1.33 1.34 1.66 1 2 C0.71898054 4.31952569 0.55217375 6.63885514 0.37890625 8.96875 C0.25386719 9.6390625 0.12882813 10.309375 0 11 C-0.99 11.495 -0.99 11.495 -2 12 C-2.28571429 3.42857143 -2.28571429 3.42857143 0 0 Z " fill="#84CCCC" transform="translate(253,112)"/>
<path d="M0 0 C0.99 0.33 1.98 0.66 3 1 C1.68 4.63 0.36 8.26 -1 12 C-2.24142712 7.03429151 -1.37261666 4.84452938 0 0 Z " fill="#74B1AF" transform="translate(253,104)"/>
<path d="M0 0 C0.66 0.33 1.32 0.66 2 1 C1.34 3.97 0.68 6.94 0 10 C-0.99 9.67 -1.98 9.34 -3 9 C-2.34 9 -1.68 9 -1 9 C-1.020625 7.88625 -1.04125 6.7725 -1.0625 5.625 C-1 2 -1 2 0 0 Z " fill="#24353A" transform="translate(333,156)"/>
<path d="M0 0 C3.63 1.98 7.26 3.96 11 6 C10.01 6.33 9.02 6.66 8 7 C6.30712215 6.04504326 4.64142963 5.0409066 3 4 C0.80869466 3.30420546 0.80869466 3.30420546 -1 3 C-0.67 2.01 -0.34 1.02 0 0 Z " fill="#688A9B" transform="translate(381,54)"/>
<path d="M0 0 C1.875 1.3125 1.875 1.3125 2.625 3.4375 C2.7075 4.05625 2.79 4.675 2.875 5.3125 C-0.50003669 4.1266763 -2.77222731 3.03676311 -5.125 0.3125 C-2.125 -0.6875 -2.125 -0.6875 0 0 Z " fill="#302A35" transform="translate(280.125,218.6875)"/>
<path d="M0 0 C0.99 0 1.98 0 3 0 C3 0.66 3 1.32 3 2 C-3.75 6 -3.75 6 -6 6 C-6 5.34 -6 4.68 -6 4 C-3 2 -3 2 0 2 C0 1.34 0 0.68 0 0 Z " fill="#B3B2A3" transform="translate(384,182)"/>
<path d="M0 0 C0.99 0.33 1.98 0.66 3 1 C3.73046875 2.84765625 3.73046875 2.84765625 4.1875 5.0625 C4.34605469 5.79597656 4.50460937 6.52945313 4.66796875 7.28515625 C4.83232422 8.13400391 4.83232422 8.13400391 5 9 C4.34 9 3.68 9 3 9 C2.01 6.03 1.02 3.06 0 0 Z " fill="#1D3A39" transform="translate(308,126)"/>
<path d="M0 0 C0.33 0.66 0.66 1.32 1 2 C0.0625 4.625 0.0625 4.625 -1 7 C-1.66 7 -2.32 7 -3 7 C-3.33 5.02 -3.66 3.04 -4 1 C-2.68 0.67 -1.36 0.34 0 0 Z " fill="#5596A5" transform="translate(357,119)"/>
<path d="M0 0 C0.66 0.99 1.32 1.98 2 3 C0.68 5.31 -0.64 7.62 -2 10 C-3 8 -3 8 -2.44140625 6.0546875 C-2.15136719 5.33539063 -1.86132812 4.61609375 -1.5625 3.875 C-1.27503906 3.15054688 -0.98757813 2.42609375 -0.69140625 1.6796875 C-0.46324219 1.12539062 -0.23507812 0.57109375 0 0 Z " fill="#47AFA0" transform="translate(306,103)"/>
<path d="M0 0 C-1.65 1.32 -3.3 2.64 -5 4 C-6.32 3.34 -7.64 2.68 -9 2 C-3.375 -1.125 -3.375 -1.125 0 0 Z " fill="#352926" transform="translate(247,40)"/>
<path d="M0 0 C0.66 0.33 1.32 0.66 2 1 C-0.625 4.875 -0.625 4.875 -4 6 C-4 5.34 -4 4.68 -4 4 C-4.66 3.67 -5.32 3.34 -6 3 C-4.03533587 1.93224776 -2.03144641 0.93446535 0 0 Z " fill="#342925" transform="translate(289,13)"/>
<path d="M0 0 C3.34373475 0.55728913 6.03312999 1.35173889 9 3 C8.34 3.66 7.68 4.32 7 5 C3.535 3.02 3.535 3.02 0 1 C0 0.67 0 0.34 0 0 Z " fill="#6E8096" transform="translate(202,182)"/>
<path d="M0 0 C0.33 0 0.66 0 1 0 C1.144375 1.093125 1.28875 2.18625 1.4375 3.3125 C1.88288104 6.93122987 1.88288104 6.93122987 3 10 C2.01 10.66 1.02 11.32 0 12 C0 8.04 0 4.08 0 0 Z " fill="#6DCFC1" transform="translate(276,133)"/>
<path d="M0 0 C0.66 0.99 1.32 1.98 2 3 C0.625 6.6875 0.625 6.6875 -1 10 C-1.33 10 -1.66 10 -2 10 C-1.54177532 6.53058454 -1.10868317 3.32604951 0 0 Z " fill="#40AE9D" transform="translate(296,99)"/>
<path d="M0 0 C0.66 0.99 1.32 1.98 2 3 C1.67 3.99 1.34 4.98 1 6 C0.34 6 -0.32 6 -1 6 C-1 6.66 -1 7.32 -1 8 C-1.66 8 -2.32 8 -3 8 C-1.125 2.25 -1.125 2.25 0 0 Z " fill="#5EB8AA" transform="translate(300,91)"/>
<path d="M0 0 C1.32 0 2.64 0 4 0 C4 0.66 4 1.32 4 2 C5.65 2.33 7.3 2.66 9 3 C9 3.66 9 4.32 9 5 C5.22454612 3.90931332 2.52956528 3.0916909 0 0 Z " fill="#6F7F99" transform="translate(269,221)"/>
<path d="M0 0 C-0.33 0.66 -0.66 1.32 -1 2 C-3.5625 2.625 -3.5625 2.625 -6 3 C-6.33 2.01 -6.66 1.02 -7 0 C-3.98968256 -0.93423645 -3.13349732 -1.04449911 0 0 Z " fill="#E9B19D" transform="translate(348,204)"/>
<path d="M0 0 C0.99 1.32 1.98 2.64 3 4 C2.01 4.33 1.02 4.66 0 5 C0 5.66 0 6.32 0 7 C-0.99 6.67 -1.98 6.34 -3 6 C-2.01 4.02 -1.02 2.04 0 0 Z " fill="#203433" transform="translate(316,88)"/>
<path d="M0 0 C0.66 0.33 1.32 0.66 2 1 C1.67 1.66 1.34 2.32 1 3 C1.66 3.33 2.32 3.66 3 4 C2.34 4 1.68 4 1 4 C1 4.66 1 5.32 1 6 C0.01 5.67 -0.98 5.34 -2 5 C-2.33 4.01 -2.66 3.02 -3 2 C-2.01 1.34 -1.02 0.68 0 0 Z " fill="#362E2D" transform="translate(281,17)"/>
</svg>
